<?xml version="1.0" encoding="UTF-8"?> <svg xmlns="http://www.w3.org/2000/svg" xmlns:xlink="http://www.w3.org/1999/xlink" width="266px" height="30px" viewBox="0 0 266 30" version="1.1"><!-- Generator: Sketch 61.2 (89653) - https://sketch.com --><title>Logo/Duck Creek Technologies Horizontal</title><desc>Created with Sketch.</desc><g id="Symbols" stroke="none" stroke-width="1" fill="none" fill-rule="evenodd"><g id="Navigation" transform="translate(-50.000000, -53.000000)"><g id="Main-Nav"><g transform="translate(0.000000, 29.000000)"><g id="Logo/Duck-Creek-Technologies-Horizontal" transform="translate(50.000000, 24.000000)"><g><path d="M72.5117816,13.2606364 C72.5117816,10.9856364 70.8118328,9.36245455 68.6189215,9.36245455 L65.9652765,9.36245455 L65.9652765,17.127 L68.6983584,17.127 C70.859041,17.127 72.5117816,15.5201818 72.5117816,13.2606364 M74.4023788,13.2447273 C74.4023788,16.4588182 71.9716109,18.8133636 68.6030341,18.8133636 L64.0905666,18.8133636 L64.0905666,7.67609091 L68.6506962,7.67609091 C71.9874983,7.67609091 74.4023788,10.0147273 74.4023788,13.2447273" id="Fill-1" fill="#4E4A54"></path><path d="M84.3191857,10.3489545 L84.3191857,18.8139545 L82.4921379,18.8139545 L82.4921379,17.1585 C81.9201925,18.3362273 80.8552846,18.8612273 79.4730833,18.8771364 C77.5348239,18.8771364 76.3745918,17.6366818 76.3745918,15.6153182 L76.3745918,10.3489545 L78.2016396,10.3489545 L78.2016396,15.1062273 C78.2016396,16.3794091 78.9488,17.1585 80.1721276,17.1585 C81.6342198,17.1275909 82.4921379,15.9971364 82.4921379,14.5175909 L82.4921379,10.3489545 L84.3191857,10.3489545 Z" id="Fill-3" fill="#4E4A54"></path><path d="M90.7166672,11.8923636 C89.2545751,11.8923636 88.2064625,12.9900909 88.2064625,14.5973636 C88.2064625,16.2041818 89.2545751,17.3019091 90.7166672,17.3019091 C91.7811212,17.3019091 92.6390392,16.9519091 93.2109846,16.2841818 L94.2277765,17.3019091 C93.4656365,18.3041818 92.2418549,18.8778182 90.6372304,18.8778182 C88.1265717,18.8778182 86.3789608,17.1428182 86.3789608,14.5973636 C86.3789608,12.0355455 88.1265717,10.2855455 90.6372304,10.2855455 C92.162872,10.2855455 93.3544249,10.7787273 94.1324522,11.6696364 L93.1315478,12.8469091 C92.543715,12.2423636 91.733459,11.8764545 90.7166672,11.8923636" id="Fill-5" fill="#4E4A54"></path><polygon id="Fill-7" fill="#4E4A54" points="99.3784625 14.9312273 97.948599 16.4435 97.948599 18.8139545 96.1210973 18.8139545 96.1210973 7.00759091 97.948599 7.00759091 97.948599 14.1357727 101.682131 10.3489545 103.779718 10.3489545 100.649452 13.6266818 104.018029 18.8139545 101.857346 18.8139545"></polygon><path d="M116.123616,9.29890909 C113.899384,9.29890909 112.151319,11.0170909 112.151319,13.213 C112.151319,15.4084545 113.899384,17.143 116.123616,17.143 C117.235732,17.143 118.380077,16.6339091 119.221654,15.823 L120.33377,17.0634545 C119.20622,18.1770909 117.601142,18.893 116.028292,18.893 C112.770927,18.893 110.244835,16.4275455 110.244835,13.2289091 C110.244835,10.0625455 112.803156,7.62845455 116.091842,7.62845455 C117.664691,7.62845455 119.237541,8.28072727 120.318337,9.34663636 L119.221654,10.7148182 C118.411398,9.83981818 117.25162,9.29890909 116.123616,9.29890909" id="Fill-9" fill="#4E4A54"></path><path d="M126.802835,10.2854545 L126.802835,12.0354545 C125.102887,11.94 124.022091,12.9422727 123.879559,14.3904545 L123.879559,18.8136364 L122.052057,18.8136364 L122.052057,10.3490909 L123.879559,10.3490909 L123.879559,12.0354545 C124.451051,10.89 125.468296,10.2854545 126.802835,10.2854545" id="Fill-11" fill="#4E4A54"></path><path d="M134.349337,13.9449091 C134.285788,12.5762727 133.380208,11.749 131.997552,11.749 C130.663013,11.749 129.709771,12.5921818 129.519122,13.9449091 L134.349337,13.9449091 Z M135.938528,15.2812727 L129.550897,15.2812727 C129.837324,16.5862727 130.838228,17.3976364 132.172767,17.3976364 C133.094235,17.3976364 133.936266,17.0480909 134.555873,16.4108182 L135.525457,17.4458182 C134.699313,18.3521818 133.491419,18.8771818 132.029781,18.8771818 C129.423798,18.8771818 127.707962,17.1435455 127.707962,14.5971818 C127.707962,12.0353636 129.47146,10.3012727 131.981665,10.2853636 C134.953057,10.2853636 136.160498,12.2262727 135.938528,15.2812727 L135.938528,15.2812727 Z" id="Fill-13" fill="#4E4A54"></path><path d="M143.989885,13.9449091 C143.926336,12.5762727 143.020756,11.749 141.6381,11.749 C140.303561,11.749 139.350319,12.5921818 139.15967,13.9449091 L143.989885,13.9449091 Z M145.579076,15.2812727 L139.191445,15.2812727 C139.478326,16.5862727 140.47923,17.3976364 141.813315,17.3976364 C142.734783,17.3976364 143.576814,17.0480909 144.196421,16.4108182 L145.166005,17.4458182 C144.339861,18.3521818 143.131967,18.8771818 141.670783,18.8771818 C139.064346,18.8771818 137.34851,17.1435455 137.34851,14.5971818 C137.34851,12.0353636 139.112008,10.3012727 141.622213,10.2853636 C144.593605,10.2853636 145.801046,12.2262727 145.579076,15.2812727 L145.579076,15.2812727 Z" id="Fill-15" fill="#4E4A54"></path><polygon id="Fill-17" fill="#4E4A54" points="150.924678 14.9312273 149.494814 16.4435 149.494814 18.8139545 147.667313 18.8139545 147.667313 7.00759091 149.494814 7.00759091 149.494814 14.1357727 153.228347 10.3489545 155.325934 10.3489545 152.195668 13.6266818 155.564244 18.8139545 153.403562 18.8139545"></polygon><polygon id="Fill-19" fill="#9C9896" points="170.307362 7.67604545 170.307362 9.36240909 166.779912 9.36240909 166.779912 18.8133182 164.905202 18.8133182 164.905202 9.36240909 161.393639 9.36240909 161.393639 7.67604545"></polygon><path d="M176.536392,13.9449091 C176.472843,12.5762727 175.567263,11.749 174.184608,11.749 C172.850068,11.749 171.896826,12.5921818 171.706177,13.9449091 L176.536392,13.9449091 Z M178.125584,15.2812727 L171.737952,15.2812727 C172.024833,16.5862727 173.025283,17.3976364 174.359823,17.3976364 C175.28129,17.3976364 176.123321,17.0480909 176.742928,16.4108182 L177.712512,17.4458182 C176.886369,18.3521818 175.678474,18.8771818 174.216836,18.8771818 C171.610853,18.8771818 169.895017,17.1435455 169.895017,14.5971818 C169.895017,12.0353636 171.658515,10.3012727 174.169174,10.2853636 C177.140113,10.2853636 178.347553,12.2262727 178.125584,15.2812727 L178.125584,15.2812727 Z" id="Fill-21" fill="#9C9896"></path><path d="M183.873226,11.8923636 C182.411134,11.8923636 181.363022,12.9900909 181.363022,14.5973636 C181.363022,16.2041818 182.411134,17.3019091 183.873226,17.3019091 C184.93768,17.3019091 185.795598,16.9519091 186.367544,16.2841818 L187.384335,17.3019091 C186.622196,18.3041818 185.398414,18.8778182 183.793789,18.8778182 C181.283131,18.8778182 179.53552,17.1428182 179.53552,14.5973636 C179.53552,12.0355455 181.283131,10.2855455 183.793789,10.2855455 C185.319885,10.2855455 186.511438,10.7787273 187.289011,11.6696364 L186.288107,12.8469091 C185.700274,12.2423636 184.890018,11.8764545 183.873226,11.8923636" id="Fill-23" fill="#9C9896"></path><path d="M197.381033,13.5469545 L197.381033,18.8133182 L195.554439,18.8133182 L195.554439,14.0560455 C195.554439,12.7833182 194.791391,12.0037727 193.519948,12.0037727 C192.010647,12.0196818 191.105067,13.1492273 191.105067,14.6451364 L191.105067,18.8133182 L189.277566,18.8133182 L189.277566,7.00786364 L191.105067,7.00786364 L191.105067,12.0037727 C191.708787,10.8101364 192.789129,10.2855909 194.23488,10.2855909 C196.205368,10.2855909 197.381033,11.5265 197.381033,13.5469545" id="Fill-25" fill="#9C9896"></path><path d="M208.004828,13.5469545 L208.004828,18.8133182 L206.178234,18.8133182 L206.178234,14.0560455 C206.178234,12.7833182 205.415186,12.0037727 204.143743,12.0037727 C202.745654,12.0196818 201.871848,12.9901364 201.744749,14.3105909 L201.744749,18.8133182 L199.918156,18.8133182 L199.918156,10.3487727 L201.744749,10.3487727 L201.744749,11.9719545 C202.34847,10.7946818 203.428811,10.2855909 204.858674,10.2855909 C206.829162,10.2855909 208.004828,11.5265 208.004828,13.5469545" id="Fill-27" fill="#9C9896"></path><path d="M211.71117,14.5972273 C211.71117,16.2358636 212.775624,17.3499545 214.300812,17.3499545 C215.810112,17.3499545 216.87502,16.2358636 216.87502,14.5972273 C216.87502,12.9745 215.810112,11.8445 214.300812,11.8445 C212.775624,11.8445 211.71117,12.9745 211.71117,14.5972273 M218.702068,14.5654091 C218.702068,17.1267727 216.906341,18.8772273 214.300812,18.8772273 C211.679396,18.8772273 209.884576,17.1267727 209.884576,14.5654091 C209.884576,12.0195 211.679396,10.2854091 214.300812,10.2854091 C216.906341,10.2854091 218.702068,12.0195 218.702068,14.5654091" id="Fill-29" fill="#9C9896"></path><polygon id="Fill-31" fill="#9C9896" points="220.791348 18.8131364 222.617942 18.8131364 222.617942 7.00722727 220.791348 7.00722727"></polygon><path d="M226.510257,14.5972273 C226.510257,16.2358636 227.574711,17.3499545 229.099899,17.3499545 C230.609199,17.3499545 231.674107,16.2358636 231.674107,14.5972273 C231.674107,12.9745 230.609199,11.8445 229.099899,11.8445 C227.574711,11.8445 226.510257,12.9745 226.510257,14.5972273 M233.501155,14.5654091 C233.501155,17.1267727 231.705428,18.8772273 229.099899,18.8772273 C226.478483,18.8772273 224.68321,17.1267727 224.68321,14.5654091 C224.68321,12.0195 226.478483,10.2854091 229.099899,10.2854091 C231.705428,10.2854091 233.501155,12.0195 233.501155,14.5654091" id="Fill-33" fill="#9C9896"></path><path d="M241.511477,14.3586364 C241.511477,12.8313636 240.510119,11.765 239.080709,11.765 C237.634504,11.765 236.6336,12.8468182 236.617713,14.3586364 C236.6336,15.8859091 237.618617,16.9677273 239.080709,16.9677273 C240.510119,16.9677273 241.511477,15.8859091 241.511477,14.3586364 L241.511477,14.3586364 Z M243.322638,10.3490909 L243.322638,17.9859091 C243.322638,20.4204545 241.590914,21.9477273 238.937269,21.9477273 C237.618617,21.9477273 236.458385,21.535 235.425706,20.8345455 L236.205095,19.5136364 C236.999463,20.1022727 237.825153,20.4368182 238.857832,20.4368182 C240.462457,20.4368182 241.511477,19.4977273 241.511477,18.0336364 L241.511477,16.9677273 C240.939078,17.8909091 239.986289,18.4 238.714846,18.4 C236.427064,18.4 234.901423,16.745 234.901423,14.3109091 C234.901423,11.9240909 236.411177,10.3013636 238.651296,10.2854545 C239.954061,10.2695455 240.92319,10.7945455 241.511477,11.7172727 L241.511477,10.3490909 L243.322638,10.3490909 Z" id="Fill-34" fill="#9C9896"></path><path d="M245.928348,18.8131364 L247.739055,18.8131364 L247.739055,10.3485909 L245.928348,10.3485909 L245.928348,18.8131364 Z M247.897928,7.93086364 C247.897928,8.55131818 247.437648,9.01268182 246.833474,9.01268182 C246.229754,9.01268182 245.76902,8.55131818 245.76902,7.93086364 C245.76902,7.29404545 246.229754,6.83268182 246.833474,6.83268182 C247.437648,6.83268182 247.897928,7.29404545 247.897928,7.93086364 L247.897928,7.93086364 Z" id="Fill-35" fill="#9C9896"></path><path d="M256.373977,13.9449091 C256.310428,12.5762727 255.404848,11.749 254.022192,11.749 C252.687653,11.749 251.734411,12.5921818 251.543762,13.9449091 L256.373977,13.9449091 Z M257.963169,15.2812727 L251.575537,15.2812727 C251.862418,16.5862727 252.862868,17.3976364 254.197408,17.3976364 C255.118875,17.3976364 255.960906,17.0480909 256.580513,16.4108182 L257.550097,17.4458182 C256.723954,18.3521818 255.516059,18.8771818 254.054421,18.8771818 C251.448438,18.8771818 249.732602,17.1435455 249.732602,14.5971818 C249.732602,12.0353636 251.4961,10.3012727 254.006759,10.2853636 C256.977698,10.2853636 258.185138,12.2262727 257.963169,15.2812727 L257.963169,15.2812727 Z" id="Fill-36" fill="#9C9896"></path><path d="M262.494883,11.7332273 C261.779951,11.7332273 261.256122,11.9718636 261.256122,12.5764091 C261.256122,14.1359545 265.752248,13.2923182 265.736402,16.3636818 C265.736402,18.0973182 264.195285,18.8773182 262.494883,18.8773182 C261.256122,18.8773182 259.936562,18.4641364 259.094985,17.6995909 L259.745913,16.3950455 C260.477186,17.0473182 261.653306,17.4450455 262.574773,17.4450455 C263.353255,17.4450455 263.956975,17.1750455 263.956975,16.5382273 C263.956975,14.8041364 259.508057,15.7750455 259.523944,12.7195909 C259.523944,11.0014091 261.017357,10.2695909 262.637869,10.2695909 C263.702323,10.2695909 264.83078,10.5877727 265.593374,11.1286818 L264.925651,12.4809545 C264.179398,12.0195909 263.242043,11.7332273 262.494883,11.7332273" id="Fill-37" fill="#9C9896"></path><polygon id="Fill-38" fill="#FFA360" points="44.8848672 11.1213182 38.4727239 7.4145 38.4727239 14.8285909"></polygon><polygon id="Fill-39" fill="#3B3487" points="32.0606259 11.1213182 25.6484826 14.8285909 32.0606259 18.5358636 38.4727693 14.8285909 38.4727693 7.4145"></polygon><polygon id="Fill-40" fill="#7E6BF4" points="19.2363392 3.70722727 12.8241959 7.4145 19.2363392 11.1213182 25.6484826 14.8285909 25.6484826 7.4145 25.6484826 -4.54545455e-05"></polygon><polygon id="Fill-41" fill="#3B3487" points="19.2363392 11.1213182 12.8241959 7.4145 6.41205256 3.70722727 -9.07849829e-05 -4.54545455e-05 -9.07849829e-05 7.4145 -9.07849829e-05 14.8285909 6.41205256 18.5358636 12.8241959 22.2426818 19.2363392 18.5358636 25.6484826 14.8285909"></polygon><polygon id="Fill-42" fill="#2DD49C" points="12.8242413 29.6571364 19.2667976 25.9444091 25.7025451 22.2235 32.0606713 18.5357727 25.648528 14.8285 19.2363846 18.5357727 12.8242413 22.2425909 6.41209795 18.5357727 -4.53924915e-05 22.2425909 6.39621058 25.9444091"></polygon></g></g></g></g></g></g></svg> 